<svg id="bf79d768-03ea-4f54-9f8f-4b669f99fbc0" data-name="Layer 1" xmlns="http://www.w3.org/2000/svg" viewBox="0 0 275.74 275.74">
  <path d="M83.2,0A83,83,0,0,0,0,83.2V192.55a83,83,0,0,0,83.2,83.19H192.54a83,83,0,0,0,83.2-83.19V83.2A83,83,0,0,0,192.54,0Zm9.27,23.39h90.8a68.93,68.93,0,0,1,69.08,69.08v90.8a68.94,68.94,0,0,1-69.08,69.09H92.47a68.94,68.94,0,0,1-69.08-69.09V92.47A68.93,68.93,0,0,1,92.47,23.39ZM210.49,48A18.47,18.47,0,1,0,229,66.48h0A18.48,18.48,0,0,0,210.5,48ZM139.1,64a72.62,72.62,0,0,0-72.63,72.62h0a72.62,72.62,0,0,0,72.63,72.62h0a72.62,72.62,0,0,0,72.63-72.62h0A72.62,72.62,0,0,0,139.11,64Zm0,30.77A41.85,41.85,0,0,1,181,136.64h0A41.85,41.85,0,1,1,139.1,94.79Z"/>
</svg>
